#!OML:ASF H:\Dans Jumps\Project 1\Capture day 1\Session 1\subject.ASF
:FULLY-SPECIFIED
:DEGREES
262
root 0.544919 15.906 -15.9498 21.8291 -2.30944 -2.49215
lowerback 18.9008 0.229278 0.105247
upperback 7.97573 0.383862 2.29647
thorax -2.02275 0.143776 2.29341
lowerneck -17.2369 1.16972 -1.79162
upperneck 3.25832 2.10157 -1.97794
head 3.71931 0.899492 -0.15899
rclavicle 5.36719e-015 -1.78906e-014
rhumerus -23.5781 -12.9449 -75.6597
rradius 26.7297
rwrist 28.6897
rhand -18.9535 -25.8668
rfingers 7.12502
rthumb 7.35007 -55.7191
lclavicle 5.36719e-015 -1.78906e-014
lhumerus -23.8652 -2.30882 83.9512
lradius 20.0668
lwrist 9.7097
lhand -26.6587 -4.60758
lfingers 7.12502
lthumb -0.0904548 25.3721
rfemur -58.3935 -2.50181 22.6115
rtibia 58.2958
rfoot -21.109 -3.35157
rtoes -0.558011
lfemur -58.4462 8.72016 -21.4454
ltibia 58.2279
lfoot -19.9533 6.24041
ltoes -11.7805
263
root 0.544646 15.8541 -15.9723 22.181 -2.31222 -2.50074
lowerback 19.1161 0.23355 0.0540963
upperback 8.00346 0.382364 2.28986
thorax -2.10379 0.142091 2.31662
lowerneck -17.0983 1.18515 -1.71655
upperneck 2.45629 2.09366 -2.03564
head 3.8832 0.906312 -0.195848
rclavicle 7.35503e-015 -3.97569e-016
rhumerus -23.8849 -13.0354 -75.4779
rradius 26.6808
rwrist 28.724
rhand -18.9128 -25.833
rfingers 7.12502
rthumb 7.3893 -55.6839
lclavicle 7.35503e-015 -3.97569e-016
lhumerus -24.1869 -2.1804 83.8633
lradius 20.0064
lwrist 9.82915
lhand -26.8188 -4.80837
lfingers 7.12502
lthumb -0.24505 25.1712
rfemur -59.3214 -2.51395 22.6713
rtibia 59.0372
rfoot -21.2558 -3.40212
rtoes -0.796048
lfemur -59.3698 8.6556 -21.4875
ltibia 58.9933
lfoot -20.1014 6.40368
ltoes -11.858
264
root 0.544347 15.8026 -15.9939 22.5251 -2.32088 -2.52048
lowerback 19.328 0.242407 0.0107694
upperback 8.03185 0.387819 2.2846
thorax -2.18242 0.143938 2.3354
lowerneck -17.1055 1.18546 -1.70738
upperneck 2.10751 2.08519 -2.05557
head 3.75894 0.906685 -0.205848
rclavicle -2.88238e-015 1.78906e-015
rhumerus -24.1986 -13.1477 -75.2902
rradius 26.628
rwrist 28.7571
rhand -18.8742 -25.7724
rfingers 7.12502
rthumb 7.42658 -55.6221
lclavicle -2.88238e-015 1.78906e-015
lhumerus -24.4944 -2.05042 83.7768
lradius 19.9264
lwrist 9.92662
lhand -26.9915 -5.00992
lfingers 7.12502
lthumb -0.41187 24.9694
rfemur -60.2285 -2.51425 22.7413
rtibia 59.7609
rfoot -21.3949 -3.45751
rtoes -1.01531
lfemur -60.2756 8.60907 -21.5209
ltibia 59.7484
lfoot -20.251 6.55357
ltoes -11.9239
265
root 0.544059 15.7514 -16.0146 22.8558 -2.34074 -2.55322
lowerback 19.5487 0.257679 -0.0284521
upperback 8.06068 0.402092 2.28088
thorax -2.2652 0.150158 2.35166
lowerneck -17.1219 1.18398 -1.70191
upperneck 1.77737 2.0753 -2.06939
head 3.64349 0.906272 -0.213112
rclavicle 0 -1.60022e-014
rhumerus -24.5225 -13.257 -75.1026
rradius 26.582
rwrist 28.783
rhand -18.8476 -25.7054
rfingers 7.12502
rthumb 7.45229 -55.5541
lclavicle 0 -1.60022e-014
lhumerus -24.7925 -1.89615 83.6841
lradius 19.8309
lwrist 9.9455
lhand -27.1013 -5.13413
lfingers 7.12502
lthumb -0.517887 24.845
rfemur -61.0171 -2.49823 22.8209
rtibia 60.2058
rfoot -21.3611 -3.48216
rtoes -1.21642
lfemur -61.0659 8.58291 -21.5423
ltibia 60.2276
lfoot -20.2399 6.62616
ltoes -11.978
266
root 0.543827 15.7005 -16.0347 23.1714 -2.36856 -2.59924
lowerback 19.7795 0.278793 -0.0611934
upperback 8.09012 0.424931 2.27971
thorax -2.35265 0.160649 2.36513
lowerneck -17.1562 1.1791 -1.69452
upperneck 1.47343 2.06159 -2.08376
head 3.54132 0.903407 -0.221022
rclavicle 4.96962e-015 -1.23246e-014
rhumerus -24.8518 -13.3777 -74.9089
rradius 26.5303
rwrist 28.8305
rhand -18.8228 -25.6125
rfingers 7.12502
rthumb 7.47621 -55.4604
lclavicle 4.96962e-015 -1.23246e-014
lhumerus -25.0849 -1.73147 83.5889
lradius 19.72
lwrist 9.88272
lhand -27.2167 -5.29281
lfingers 7.12502
lthumb -0.629398 24.686
rfemur -61.7799 -2.46939 22.9111
rtibia 60.6372
rfoot -21.3254 -3.49867
rtoes -1.37283
lfemur -61.8352 8.57597 -21.551
ltibia 60.7
lfoot -20.2303 6.68703
ltoes -12.028
267
root 0.545254 15.7669 -16.0691 23.4714 -2.40296 -2.65642
lowerback 20.0212 0.303244 -0.0876496
upperback 8.12178 0.452977 2.27857
thorax -2.44329 0.173767 2.37386
lowerneck -17.1984 1.17168 -1.69298
upperneck 1.18181 2.04542 -2.08663
head 3.44511 0.899579 -0.224138
rclavicle -8.44835e-015 -2.80286e-014
rhumerus -25.1822 -13.493 -74.7191
rradius 26.4762
rwrist 28.9055
rhand -18.7991 -25.5163
rfingers 7.12502
rthumb 7.49906 -55.3634
lclavicle -8.44835e-015 -2.80286e-014
lhumerus -25.3727 -1.54736 83.4822
lradius 19.603
lwrist 9.73039
lhand -27.3048 -5.43633
lfingers 7.12502
lthumb -0.714428 24.5422
rfemur -62.0278 -2.42425 23.0133
rtibia 60.5704
rfoot -21.2939 -3.50224
rtoes -1.44686
lfemur -62.0973 8.57504 -21.5517
ltibia 60.6815
lfoot -20.2202 6.74704
ltoes -12.0766
